Coordinates
version=1
nRows=14
nColumns=24
inDegrees=yes

Units are S.I. units (second, meters, Newtons, ...)
Angles are in degrees.

endheader
time	pelvis_tilt	pelvis_list	pelvis_rotation	pelvis_tx	pelvis_ty	pelvis_tz	hip_flexion_r	hip_adduction_r	hip_rotation_r	knee_angle_r	ankle_angle_r	subtalar_angle_r	mtp_angle_r	hip_flexion_l	hip_adduction_l	hip_rotation_l	knee_angle_l	ankle_angle_l	subtalar_angle_l	mtp_angle_l	lumbar_extension	lumbar_bending	lumbar_rotation
      8.13000000	     62.38681558	     -8.53142722	     -5.22548144	      0.42037237	      1.04807579	     -0.34814637	     17.62011919	      0.45884383	      8.23566958	    -38.76837605	      1.20708328	     38.34163464	      0.00000000	      1.55955311	    -19.14357867	      0.71594836	    -61.45439819	     22.99016581	     30.93272553	      0.00000000	      0.00000000	      0.00000000	      0.00000000
      8.14000000	     62.40910222	     -8.50302510	     -5.20795197	      0.42050821	      1.04805844	     -0.34818056	     17.84190644	      0.46400985	      8.04687615	    -38.67777163	      1.07320292	     38.28636307	      0.00000000	      1.54667744	    -19.10924768	      0.73251608	    -61.47593690	     23.02000132	     30.93575760	      0.00000000	      0.00000000	      0.00000000	      0.00000000
      8.15000000	     62.41919634	     -8.48588687	     -5.19264406	      0.42052252	      1.04794458	     -0.34819813	     17.98124729	      0.48651239	      7.91048436	    -38.44935414	      0.97288045	     38.25768516	      0.00000000	      1.54926419	    -19.08681560	      0.75353457	    -61.48817589	     23.03680300	     30.93735406	      0.00000000	      0.00000000	      0.00000000	      0.00000000
      8.16000000	     62.41933720	     -8.48051999	     -5.18094683	      0.42047140	      1.04784980	     -0.34821624	     18.06413608	      0.52788549	      7.82105610	    -38.11512201	      0.89759062	     38.25041369	      0.00000000	      1.56691262	    -19.07747282	      0.77571400	    -61.49405213	     23.04140496	     30.93836726	      0.00000000	      0.00000000	      0.00000000	      0.00000000
      8.17000000	     62.40946668	     -8.48537064	     -5.17371499	      0.42039922	      1.04780951	     -0.34823108	     18.12208336	      0.58559544	      7.76546360	    -37.72469061	      0.83518109	     38.25770898	      0.00000000	      1.59591476	    -19.08012421	      0.79596841	    -61.49728785	     23.03654429	     30.93968143	      0.00000000	      0.00000000	      0.00000000	      0.00000000
      8.18000000	     62.38882148	     -8.49697738	     -5.17167092	      0.42032782	      1.04779186	     -0.34822701	     18.18069302	      0.65476292	      7.72806517	    -37.32900673	      0.77655446	     38.27254919	      0.00000000	      1.63235396	    -19.09211147	      0.81267406	    -61.50046084	     23.02636329	     30.94202285	      0.00000000	      0.00000000	      0.00000000	      0.00000000
      8.19000000	     62.35901259	     -8.51111279	     -5.17451207	      0.42027181	      1.04776835	     -0.34819670	     18.25417275	      0.72977898	      7.69537725	    -36.96512704	      0.72107272	     38.28882817	      0.00000000	      1.67301321	    -19.10984929	      0.82596136	    -61.50421598	     23.01570124	     30.94583509	      0.00000000	      0.00000000	      0.00000000	      0.00000000
      8.20000000	     62.32511874	     -8.52447926	     -5.18015213	      0.42024482	      1.04773320	     -0.34814939	     18.34410309	      0.80503196	      7.65832776	    -36.64840749	      0.67870808	     38.30196838	      0.00000000	      1.71411233	    -19.12930357	      0.83695170	    -61.50796193	     23.00924986	     30.95125385	      0.00000000	      0.00000000	      0.00000000	      0.00000000
      8.21000000	     62.29484130	     -8.53584338	     -5.18540691	      0.42024514	      1.04769252	     -0.34810556	     18.44118809	      0.87514575	      7.61191697	    -36.37380309	      0.66788437	     38.30915390	      0.00000000	      1.74999242	    -19.14664413	      0.84654660	    -61.51137353	     23.01068064	     30.95816077	      0.00000000	      0.00000000	      0.00000000	      0.00000000
      8.22000000	     62.27684418	     -8.54580144	     -5.18781917	      0.42024218	      1.04766198	     -0.34808280	     18.52940035	      0.93571134	      7.55360585	    -36.12362312	      0.70919032	     38.30939142	      0.00000000	      1.77331320	    -19.15911922	      0.85447148	    -61.51567600	     23.02186950	     30.96626806	      0.00000000	      0.00000000	      0.00000000	      0.00000000
      8.23000000	     62.27854629	     -8.55514286	     -5.18711345	      0.42019519	      1.04766680	     -0.34807802	     18.59164329	      0.98507440	      7.48233205	    -35.87708487	      0.81646601	     38.30355960	      0.00000000	      1.77681565	    -19.16589755	      0.85913282	    -61.52382001	     23.04233855	     30.97519368	      0.00000000	      0.00000000	      0.00000000	      0.00000000
      8.24000000	     62.30339884	     -8.56312270	     -5.18511186	      0.42011963	      1.04770743	     -0.34806877	     18.61537107	      1.02643648	      7.39960164	    -35.61743254	      0.98793344	     38.29446504	      0.00000000	      1.75593046	    -19.16867265	      0.85856612	    -61.53903928	     23.06904603	     30.98450794	      0.00000000	      0.00000000	      0.00000000	      0.00000000
      8.25000000	     62.34829130	     -8.56823898	     -5.18412021	      0.42013135	      1.04771704	     -0.34804459	     18.59650407	      1.06798996	      7.31271353	    -35.33425415	      1.20074788	     38.28671882	      0.00000000	      1.71155749	    -19.17192125	      0.85207698	    -61.56217919	     23.09667963	     30.99375559	      0.00000000	      0.00000000	      0.00000000	      0.00000000
      8.26000000	     62.40257134	     -8.57303231	     -5.18488901	      0.42032727	      1.04762673	     -0.34801897	     18.54086514	      1.11918079	      7.23812101	    -35.02052825	      1.41216147	     38.28610836	      0.00000000	      1.65242365	    -19.18242738	      0.84150549	    -61.58947856	     23.11855679	     31.00247961	      0.00000000	      0.00000000	      0.00000000	      0.00000000
